<svg xmlns="http://www.w3.org/2000/svg" viewBox="0 0 29 29"><path d="M1 1h7v7h-7zM9 1h1v1h-1zM11 1h1v1h-1zM15 1h1v1h-1zM17 1h3v1h-3zM21 1h7v7h-7zM2 2v5h5v-5zM12 2h1v2h-1zM14 2h1v2h-1zM16 2h1v1h-1zM22 2v5h5v-5zM3 3h3v3h-3zM9 3h2v1h-2zM13 3h1v2h-1zM15 3h1v1h-1zM23 3h3v3h-3zM9 4h1v2h-1zM11 4h1v1h-1zM16 4h1v2h-1zM10 5h2v2h-2zM13 5h1v1h-1zM15 5h1v1h-1zM12 6h1v2h-1zM14 6h1v1h-1zM17 6h1v1h-1zM9 7h1v1h-1zM13 7h1v2h-1zM16 7h1v3h-1zM1 9h1v1h-1zM3 9h4v2h-4zM8 9h1v1h-1zM10 9h1v4h-1zM14 9h1v1h-1zM17 9h1v2h-1zM19 9h1v3h-1zM21 9h1v2h-1zM23 9h1v1h-1zM25 9h1v1h-1zM27 9h1v2h-1zM1 10h1v1h-1zM7 10h1v1h-1zM11 10h2v1h-2zM20 10h1v3h-1zM22 10h1v4h-1zM24 10h1v1h-1zM26 10h1v1h-1zM2 11h1v3h-1zM4 11h1v1h-1zM6 11h1v3h-1zM8 11h1v1h-1zM13 11h1v2h-1zM15 11h1v1h-1zM18 11h1v1h-1zM23 11h1v2h-1zM25 11h1v1h-1zM3 12h1v1h-1zM5 12h1v2h-1zM7 12h1v1h-1zM9 12h1v2h-1zM11 12h1v1h-1zM14 12h1v1h-1zM17 12h1v2h-1zM24 12h1v1h-1zM26 12h1v2h-1zM1 13h1v1h-1zM8 13h1v1h-1zM12 13h1v2h-1zM16 13h1v2h-1zM19 13h1v2h-1zM21 13h1v1h-1zM25 13h1v2h-1zM27 13h1v1h-1zM3 14h3v1h-3zM13 14h1v1h-1zM15 14h1v1h-1zM20 14h1v1h-1zM24 14h1v1h-1zM4 15h3v1h-3zM8 15h1v1h-1zM11 15h1v1h-1zM14 15h1v1h-1zM17 15h1v1h-1zM21 15h1v1h-1zM27 15h1v1h-1zM1 16h1v1h-1zM3 16h1v1h-1zM5 16h1v1h-1zM7 16h1v3h-1zM9 16h2v1h-2zM12 16h1v1h-1zM15 16h1v1h-1zM18 16h1v1h-1zM20 16h1v3h-1zM22 16h1v1h-1zM25 16h1v2h-1zM2 17h1v1h-1zM4 17h1v1h-1zM6 17h1v1h-1zM11 17h1v2h-1zM13 17h2v1h-2zM16 17h1v1h-1zM19 17h1v1h-1zM21 17h1v1h-1zM23 17h1v2h-1zM26 17h1v1h-1zM1 18h1v1h-1zM3 18h1v2h-1zM5 18h1v1h-1zM8 18h1v1h-1zM10 18h1v1h-1zM12 18h1v1h-1zM14 18h1v1h-1zM17 18h1v1h-1zM24 18h1v1h-1zM26 18h2v1h-2zM2 19h1v1h-1zM4 19h1v1h-1zM6 19h1v1h-1zM9 19h1v2h-1zM13 19h1v1h-1zM15 19h1v3h-1zM18 19h2v3h-2zM21 19h1v1h-1zM25 19h1v1h-1zM27 19h1v2h-1zM1 20h1v1h-1zM5 20h2v1h-2zM7 20h1v2h-1zM10 20h1v4h-1zM12 20h1v2h-1zM14 20h1v1h-1zM16 20h1v4h-1zM20 20h2v1h-2zM22 20h2v1h-2zM26 20h1v1h-1zM2 21h1v1h-1zM4 21h1v1h-1zM6 21h1v1h-1zM8 21h1v1h-1zM11 21h1v1h-1zM13 21h1v1h-1zM24 21h1v2h-1zM26 21h1v1h-1zM1 22h1v1h-1zM3 22h1v1h-1zM5 22h1v1h-1zM9 22h1v1h-1zM14 22h1v1h-1zM20 22h1v1h-1zM23 22h1v1h-1zM25 22h1v1h-1zM27 22h1v1h-1zM2 23h3v1h-3zM6 23h1v1h-1zM8 23h1v3h-1zM11 23h1v2h-1zM13 23h1v1h-1zM15 23h2v1h-2zM18 23h2v2h-2zM21 23h1v1h-1zM26 23h1v1h-1zM7 24h1v1h-1zM12 24h1v1h-1zM14 24h1v2h-1zM17 24h1v2h-1zM20 24h1v2h-1zM22 24h2v1h-2zM25 24h1v1h-1zM27 24h1v3h-1zM1 25h7v1h-7zM9 25h1v1h-1zM13 25h1v1h-1zM15 25h1v1h-1zM21 25h1v1h-1zM23 25h2v1h-2zM26 25h1v1h-1zM9 26h1v1h-1zM11 26h1v1h-1zM13 26h1v1h-1zM16 26h1v1h-1zM19 26h1v2h-1zM22 26h1v2h-1zM24 26h1v1h-1zM9 27h2v1h-2zM12 27h2v1h-2zM15 27h1v1h-1zM17 27h1v1h-1zM20 27h1v1h-1zM23 27h1v1h-1zM25 27h2v1h-2z"/></svg>