<svg width="120" height="120" viewBox="0 0 120 120" fill="none" xmlns="http://www.w3.org/2000/svg">
  <circle cx="60" cy="60" r="60" fill="#6D1AB6"/>
  <path d="M43.5 40C43.5 38.067 44.5327 36.5 45.75 36.5C46.9673 36.5 48 38.067 48 40C48 41.933 46.9673 43.5 45.75 43.5C44.5327 43.5 43.5 41.933 43.5 40Z" fill="white"/>
  <path d="M72 40C72 38.067 73.0327 36.5 74.25 36.5C75.4673 36.5 76.5 38.067 76.5 40C76.5 41.933 75.4673 43.5 74.25 43.5C73.0327 43.5 72 41.933 72 40Z" fill="white"/>
  <path d="M42.4236 70.3249C41.8018 69.1145 42.2987 67.6309 43.5091 67.0091C44.7195 66.3873 46.2031 66.8842 46.8249 68.0946L57.5764 89.6751C58.1982 90.8855 57.7013 92.3691 56.4909 92.9909C55.2805 93.6127 53.7969 93.1158 53.1751 91.9054L42.4236 70.3249Z" fill="white"/>
  <path d="M80.5764 70.3249C81.1982 69.1145 80.7013 67.6309 79.4909 67.0091C78.2805 66.3873 76.7969 66.8842 76.1751 68.0946L65.4236 89.6751C64.8018 90.8855 65.2987 92.3691 66.5091 92.9909C67.7195 93.6127 69.2031 93.1158 69.8249 91.9054L80.5764 70.3249Z" fill="white"/>
  <path d="M60 70C68.2843 70 75 63.2843 75 55C75 46.7157 68.2843 40 60 40C51.7157 40 45 46.7157 45 55C45 63.2843 51.7157 70 60 70Z" fill="white"/>
  <circle cx="55" cy="55" r="5" fill="#6D1AB6"/>
  <circle cx="65" cy="55" r="5" fill="#6D1AB6"/>
</svg>